<svg width="232" height="69" viewBox="0 0 232 69" fill="none" xmlns="http://www.w3.org/2000/svg">
<path d="M20.6574 28.0129V9H28.741V28.0129H52.0935V47.9312H68V54.2688H52.0935V64.308C52.0935 70.1665 48.9498 70.1129 44.1984 66.4914L24.6098 52.0054C23.3519 50.6473 24.2501 47.9312 26.6841 47.9312H44.0099V34.3505H28.741V41.7473C28.741 48.3891 23.5405 47.1283 21.295 45.6677L0.428525 30.729C-0.449641 29.8237 -0.000638569 28.0129 1.98421 28.0129H20.6574Z" fill="url(#paint0_linear_505_155)"/>
<path d="M82.61 54.35V62H80.525V58.76H77.78V58.985C77.78 59.825 77.375 60.185 76.73 60.185C75.725 60.185 74.48 58.865 74.48 57.935C74.48 57.485 74.705 57.08 75.605 57.08H75.68V54.35H74V52.67H83.99V54.35H82.61ZM80.525 54.35H77.78V57.08H80.525V54.35ZM88.3002 60.815C86.2302 60.815 84.9852 59.81 84.9852 58.4C84.9852 57.83 85.1952 57.335 85.6452 56.945C84.7752 56.48 84.1752 55.775 84.1752 54.755C84.1752 53.375 85.0902 52.52 86.7402 52.52C88.4052 52.52 89.0352 53.36 89.0352 54.35C89.0352 54.83 88.8852 55.265 88.5402 55.64L87.0852 55.13C87.2502 54.935 87.3402 54.71 87.3402 54.515C87.3402 54.17 87.1452 53.975 86.7702 53.975C86.3052 53.975 86.0052 54.32 86.0052 54.845C86.0052 55.415 86.3652 55.895 87.0702 56.15C87.3852 56.09 87.7302 56.075 88.1052 56.075C88.4352 56.075 88.7502 56.105 89.0052 56.15L88.8702 57.68C88.7202 57.665 88.5252 57.665 88.3302 57.665C87.5052 57.665 87.0852 57.905 87.0852 58.37C87.0852 58.88 87.6102 59.135 88.3452 59.135C89.4702 59.135 90.1752 58.67 90.6852 58.04L91.6002 59.405C90.8502 60.245 89.7102 60.815 88.3002 60.815ZM99.2047 52.67V54.35H97.8097V62H95.7247V59.87C95.1697 60.185 94.5247 60.365 93.7147 60.365C91.5397 60.365 90.2497 59.105 89.7697 56.615C91.1947 56.375 91.8097 55.985 91.8097 55.31C91.8097 54.935 91.6597 54.62 91.3897 54.35H89.4547V52.67H99.2047ZM92.1397 57.605C92.3947 58.295 92.8897 58.685 93.7297 58.685C94.5247 58.685 95.1997 58.31 95.7247 57.77V54.35H93.4897C93.7597 54.755 93.8947 55.175 93.8947 55.625C93.8947 56.645 93.2947 57.215 92.1397 57.605ZM102.493 60.905L104.713 59.72C103.453 59.36 102.838 58.355 102.838 56.75V54.35H101.848V52.67H111.298V54.35H109.918V62H107.818V59.495L103.453 62.39L102.493 60.905ZM107.818 54.35H104.923V56.72C104.923 57.785 105.328 58.205 106.138 58.205C106.768 58.205 107.383 57.86 107.818 57.455V54.35ZM116.926 63.05C116.611 62.405 116.356 61.715 116.161 61.13C115.936 61.16 115.681 61.175 115.381 61.175C113.386 61.175 111.346 60.26 111.346 58.055C111.346 56.15 112.636 55.22 115.261 55.22H115.861V54.35H110.776V52.67H119.401V54.35H117.931V56.825H115.606C114.121 56.825 113.431 57.245 113.431 58.145C113.431 59.015 114.166 59.48 115.351 59.48C115.456 59.48 115.561 59.465 115.681 59.465C115.651 59.345 115.651 59.24 115.651 59.135C115.651 58.34 116.176 57.92 117.001 57.92C117.991 57.92 118.621 58.565 118.621 59.345C118.621 59.885 118.336 60.29 117.796 60.575C118.051 61.115 118.351 61.715 118.756 62.36L116.926 63.05ZM115.631 52.775C114.941 50.69 114.626 50.27 113.771 50.27C113.411 50.27 113.006 50.36 112.661 50.495L112.136 48.86C112.676 48.65 113.276 48.56 113.861 48.56C115.706 48.56 116.396 49.43 117.431 52.775H115.631ZM120.759 59.825C119.694 59.81 118.944 59.3 118.944 58.37C118.944 57.635 119.484 57.185 120.249 57.185C120.804 57.185 121.224 57.38 121.674 57.785C122.724 57.38 123.309 56.495 123.309 55.4C123.309 54.545 122.949 54.05 122.274 54.05C121.809 54.05 121.539 54.32 121.539 54.68C121.539 55.16 121.974 55.4 122.709 55.49L122.139 56.72C120.444 56.555 119.619 55.775 119.619 54.605C119.619 53.375 120.519 52.52 122.199 52.52C124.239 52.52 125.349 53.78 125.349 55.55C125.349 57.14 124.524 58.325 123.009 59.12C123.684 59.75 124.299 60.455 124.869 61.19L123.129 62.285C122.484 61.325 121.839 60.485 121.254 59.795C121.089 59.81 120.924 59.825 120.759 59.825ZM128.814 54.35V62H126.729V54.35H125.694V52.67H130.194V54.35H128.814ZM135.013 59.825C133.948 59.81 133.198 59.3 133.198 58.37C133.198 57.635 133.738 57.185 134.503 57.185C135.058 57.185 135.478 57.38 135.928 57.785C136.978 57.38 137.563 56.495 137.563 55.4C137.563 54.545 137.203 54.05 136.528 54.05C136.063 54.05 135.793 54.32 135.793 54.68C135.793 55.16 136.228 55.4 136.963 55.49L136.393 56.72C134.698 56.555 133.873 55.775 133.873 54.605C133.873 53.375 134.773 52.52 136.453 52.52C138.493 52.52 139.603 53.78 139.603 55.55C139.603 57.14 138.778 58.325 137.263 59.12C137.938 59.75 138.553 60.455 139.123 61.19L137.383 62.285C136.738 61.325 136.093 60.485 135.508 59.795C135.343 59.81 135.178 59.825 135.013 59.825ZM143.068 54.35V62H140.983V54.35H139.948V52.67H144.448V54.35H143.068ZM147.19 54.35V62H145.09V54.35H143.935V52.67H148.57V54.35H147.19ZM152.199 62.345C150.549 60.71 149.484 59.405 148.989 58.505C148.659 57.95 148.539 57.515 148.539 57.125C148.539 56.495 148.914 56.06 149.664 56.06C150.144 56.06 150.534 56.27 150.894 56.585C151.179 56.255 151.299 55.85 151.299 55.34C151.299 54.98 151.239 54.635 151.119 54.35H148.044V52.67H159.339V54.35H157.959V62H155.859V58.61C155.454 58.685 154.989 58.73 154.509 58.73C153.684 58.73 152.784 58.565 151.929 58.115C151.704 58.265 151.449 58.415 151.164 58.535C151.854 59.345 152.784 60.215 153.744 61.085L152.199 62.345ZM154.509 57.035C154.974 57.035 155.424 56.99 155.859 56.885V54.35H153.204C153.324 54.71 153.384 55.085 153.384 55.565C153.384 56.075 153.264 56.51 153.069 56.87C153.534 56.99 153.969 57.035 154.509 57.035ZM158.818 52.67H168.268V54.35H166.888V62H164.788V58.085H162.568V58.415C162.568 59.3 162.193 59.705 161.518 59.705C160.528 59.705 159.283 58.37 159.283 57.38C159.283 56.795 159.538 56.405 160.453 56.405H164.788V54.35H158.818V52.67ZM183.593 54.35H178.703V56.45C179.138 56.165 179.648 56 180.323 56C181.883 56 182.873 56.975 182.873 58.58C182.873 59.555 182.543 60.5 181.703 61.565L179.888 60.56C180.428 59.93 180.788 59.315 180.788 58.61C180.788 57.98 180.473 57.665 179.933 57.665C179.438 57.665 178.958 57.98 178.703 58.4V62H176.603V60.095C176.033 60.455 175.328 60.635 174.563 60.635C172.718 60.635 171.443 59.675 171.443 57.92C171.443 56.225 172.628 55.265 174.683 55.265C175.193 55.265 175.703 55.31 176.153 55.4L175.973 57.065C175.673 56.99 175.313 56.945 174.938 56.945C174.038 56.945 173.543 57.32 173.543 57.98C173.543 58.625 174.023 58.955 174.728 58.955C175.508 58.955 176.198 58.505 176.603 57.98V54.35H170.918V52.67H183.593V54.35ZM186.324 54.35V62H184.224V54.35H183.069V52.67H187.704V54.35H186.324ZM190.35 52.67H199.35V54.35H197.85C198.06 54.65 198.165 55.025 198.165 55.46C198.165 56.105 197.895 56.66 197.4 57.08C198.24 57.845 198.57 58.58 198.57 59.45C198.57 61.04 197.355 62 195.555 62C193.425 62 191.97 60.935 190.74 57.44L192.42 56.675C193.275 59.165 194.07 60.275 195.255 60.275C195.99 60.275 196.455 59.87 196.455 59.18C196.455 58.655 196.245 58.205 195.81 57.815C195.375 57.92 194.895 57.995 194.355 58.025L194.055 56.405C195.48 56.3 196.065 56.03 196.065 55.28C196.065 54.92 195.915 54.605 195.63 54.35H190.35V52.67ZM206.895 54.35V62H204.795V59.48C204.24 59.735 203.595 59.885 202.965 59.885C200.85 59.885 199.815 58.82 199.815 56.75V54.35H198.825V52.67H208.275V54.35H206.895ZM204.795 54.35H201.9V56.72C201.9 57.785 202.305 58.205 203.115 58.205C203.745 58.205 204.36 57.86 204.795 57.455V54.35ZM208.353 61.1L209.808 60.335C208.863 59.93 208.278 59.105 208.278 57.92C208.278 56.225 209.463 55.265 211.518 55.265C212.028 55.265 212.538 55.31 212.988 55.4L212.808 57.065C212.508 56.99 212.148 56.945 211.773 56.945C210.873 56.945 210.378 57.32 210.378 57.98C210.378 58.625 210.858 58.955 211.563 58.955C212.343 58.955 213.033 58.505 213.438 57.98V54.35H207.753V52.67H220.428V54.35H215.538V56.45C215.973 56.165 216.483 56 217.158 56C218.718 56 219.708 56.975 219.708 58.58C219.708 59.555 219.378 60.5 218.538 61.565L216.723 60.56C217.263 59.93 217.623 59.315 217.623 58.61C217.623 57.98 217.308 57.665 216.768 57.665C216.273 57.665 215.793 57.98 215.538 58.4V62H213.438V60.095C213.348 60.155 213.258 60.2 213.153 60.26L209.388 62.57L208.353 61.1ZM228.514 54.35V62H226.429V58.76H223.684V58.985C223.684 59.825 223.279 60.185 222.634 60.185C221.629 60.185 220.384 58.865 220.384 57.935C220.384 57.485 220.609 57.08 221.509 57.08H221.584V54.35H219.904V52.67H229.894V54.35H228.514ZM226.429 54.35H223.684V57.08H226.429V54.35Z" fill="black"/>
<path d="M93.664 16.64V35H88.66V27.224H82.072V27.764C82.072 29.78 81.1 30.644 79.552 30.644C77.14 30.644 74.152 27.476 74.152 25.244C74.152 24.164 74.692 23.192 76.852 23.192H77.032V16.64H73V12.608H96.976V16.64H93.664ZM88.66 16.64H82.072V23.192H88.66V16.64ZM106.364 32.372L111.692 29.528C108.668 28.664 107.192 26.252 107.192 22.4V16.64H104.816V12.608H127.496V16.64H124.184V35H119.144V28.988L108.668 35.936L106.364 32.372ZM119.144 16.64H112.196V22.328C112.196 24.884 113.168 25.892 115.112 25.892C116.624 25.892 118.1 25.064 119.144 24.092V16.64ZM155.961 16.64V35H150.957V27.224H144.369V27.764C144.369 29.78 143.397 30.644 141.849 30.644C139.437 30.644 136.449 27.476 136.449 25.244C136.449 24.164 136.989 23.192 139.149 23.192H139.329V16.64H135.297V12.608H159.273V16.64H155.961ZM150.957 16.64H144.369V23.192H150.957V16.64ZM166.593 16.64V35H161.553V16.64H158.781V12.608H169.905V16.64H166.593ZM180.919 32.156C175.951 32.156 172.963 29.744 172.963 26.36C172.963 24.992 173.467 23.804 174.547 22.868C172.459 21.752 171.019 20.06 171.019 17.612C171.019 14.3 173.215 12.248 177.175 12.248C181.171 12.248 182.683 14.264 182.683 16.64C182.683 17.792 182.323 18.836 181.495 19.736L178.003 18.512C178.399 18.044 178.615 17.504 178.615 17.036C178.615 16.208 178.147 15.74 177.247 15.74C176.131 15.74 175.411 16.568 175.411 17.828C175.411 19.196 176.275 20.348 177.967 20.96C178.723 20.816 179.551 20.78 180.451 20.78C181.243 20.78 181.999 20.852 182.611 20.96L182.287 24.632C181.927 24.596 181.459 24.596 180.991 24.596C179.011 24.596 178.003 25.172 178.003 26.288C178.003 27.512 179.263 28.124 181.027 28.124C183.727 28.124 185.419 27.008 186.643 25.496L188.839 28.772C187.039 30.788 184.303 32.156 180.919 32.156ZM207.81 12.608V16.64H204.462V35H199.458V29.888C198.126 30.644 196.578 31.076 194.634 31.076C189.414 31.076 186.318 28.052 185.166 22.076C188.586 21.5 190.062 20.564 190.062 18.944C190.062 18.044 189.702 17.288 189.054 16.64H184.41V12.608H207.81ZM190.854 24.452C191.466 26.108 192.654 27.044 194.67 27.044C196.578 27.044 198.198 26.144 199.458 24.848V16.64H194.094C194.742 17.612 195.066 18.62 195.066 19.7C195.066 22.148 193.626 23.516 190.854 24.452ZM227.926 16.64V35H222.922V27.224H216.334V27.764C216.334 29.78 215.362 30.644 213.814 30.644C211.402 30.644 208.414 27.476 208.414 25.244C208.414 24.164 208.954 23.192 211.114 23.192H211.294V16.64H207.262V12.608H231.238V16.64H227.926ZM222.922 16.64H216.334V23.192H222.922V16.64Z" fill="url(#paint1_linear_505_155)"/>
<defs>
<linearGradient id="paint0_linear_505_155" x1="34" y1="9" x2="34" y2="68.2397" gradientUnits="userSpaceOnUse">
<stop stop-color="#BB0926"/>
<stop offset="1" stop-color="#94061C"/>
</linearGradient>
<linearGradient id="paint1_linear_505_155" x1="152" y1="44" x2="152" y2="0" gradientUnits="userSpaceOnUse">
<stop stop-color="#94061C"/>
<stop offset="1" stop-color="#BA0926"/>
</linearGradient>
</defs>
</svg>
